<?xml version="1.0" standalone="no"?>
<!DOCTYPE svg PUBLIC "-//W3C//DTD SVG 20010904//EN"
 "http://www.w3.org/TR/2001/REC-SVG-20010904/DTD/svg10.dtd">
<svg version="1.0" xmlns="http://www.w3.org/2000/svg"
 width="490.000000pt" height="490.000000pt" viewBox="0 0 490.000000 490.000000"
 preserveAspectRatio="xMidYMid meet">

<g transform="translate(0.000000,490.000000) scale(0.100000,-0.100000)"
fill="#000000" stroke="none">
<path d="M2645 4520 c-44 -5 -154 -21 -245 -36 -139 -23 -211 -28 -450 -34
-322 -8 -330 -10 -494 -92 -88 -44 -109 -51 -195 -59 -157 -15 -210 -27 -280
-59 -195 -91 -290 -347 -212 -571 38 -111 99 -180 208 -234 32 -16 59 -30 61
-31 2 -1 -8 -25 -23 -54 -37 -73 -49 -147 -34 -217 18 -92 22 -121 15 -146 -3
-13 -45 -68 -93 -123 -181 -206 -229 -313 -243 -544 -5 -74 -14 -149 -20 -167
-6 -17 -43 -73 -81 -125 -115 -155 -139 -222 -139 -391 0 -110 24 -211 77
-330 36 -77 47 -114 47 -154 l1 -51 -96 -94 c-109 -106 -139 -163 -139 -267 0
-155 93 -248 242 -240 48 3 51 1 89 -43 110 -129 199 -120 439 47 l108 74 23
-25 c91 -97 238 -73 300 49 22 42 28 108 16 168 l-7 36 191 154 c105 85 202
162 216 173 24 18 24 18 110 -25 84 -43 87 -44 187 -44 91 0 107 3 159 29 102
50 145 140 134 281 -4 39 -16 100 -27 136 -18 59 -19 65 -4 74 49 30 180 126
259 190 132 107 212 181 604 559 712 686 806 778 832 816 14 20 38 76 53 124
l27 86 66 30 c196 89 270 231 261 503 -4 119 -8 140 -36 212 -72 182 -203 295
-418 361 -91 28 -257 24 -417 -10 -134 -28 -136 -28 -233 10 -113 44 -218 56
-499 59 -143 2 -296 0 -340 -5z m315 -87 c0 -3 -8 -15 -17 -26 -13 -13 -19
-41 -21 -92 -4 -65 -2 -74 16 -84 14 -7 29 -8 46 -2 21 8 26 19 32 67 6 51 12
62 51 98 49 45 45 44 207 25 83 -10 126 -22 231 -63 54 -21 105 -20 211 4 49
12 146 24 215 27 115 5 132 4 195 -18 l69 -23 -70 -7 c-113 -11 -226 -63 -313
-143 -58 -54 -129 -154 -153 -216 -21 -56 -25 -149 -8 -220 6 -25 12 -49 13
-55 1 -5 12 -29 24 -51 11 -23 19 -44 17 -48 -3 -3 -2 -4 2 -1 9 7 63 -77 56
-88 -3 -6 -1 -7 4 -4 6 4 17 -1 24 -10 12 -15 12 -16 -5 -10 -10 4 -67 20
-126 36 -130 35 -140 40 -183 93 -45 57 -57 95 -64 203 -9 146 10 238 73 342
24 41 11 67 -34 71 -29 3 -35 -2 -70 -57 -24 -36 -44 -84 -53 -123 -19 -90
-17 -309 4 -373 18 -56 13 -65 -39 -65 -44 0 -92 37 -126 97 -38 68 -45 136
-23 233 30 131 30 139 4 149 -43 15 -62 -1 -88 -75 -17 -51 -24 -93 -25 -159
l-1 -91 -35 13 c-48 17 -162 16 -257 -2 -122 -23 -243 -15 -300 21 -48 30 -77
132 -60 208 8 34 7 49 -3 61 -16 19 -69 20 -76 0 -4 -8 -9 -13 -13 -11 -3 2
-8 -36 -9 -84 -3 -73 0 -97 17 -136 12 -26 20 -48 19 -49 -24 -13 -353 -111
-408 -121 -131 -23 -153 -20 -193 26 -94 111 -153 306 -118 395 19 48 -23 88
-64 61 -42 -28 -57 -129 -34 -238 11 -54 71 -188 109 -245 l21 -32 -43 -11
c-173 -45 -272 -78 -327 -108 -60 -32 -68 -34 -135 -30 -57 4 -82 11 -126 38
-75 44 -85 54 -120 121 -37 71 -52 172 -38 248 12 66 45 144 58 136 5 -3 7 0
5 8 -10 25 111 128 129 110 3 -4 6 -2 6 4 0 9 37 22 114 38 25 5 28 4 21 -12
-14 -37 -35 -150 -35 -194 0 -111 48 -254 96 -286 22 -14 26 -14 49 1 32 21
31 34 -5 110 -41 84 -49 175 -26 280 10 42 24 82 32 90 8 8 40 22 72 31 31 9
97 37 145 61 85 42 202 83 212 73 2 -3 0 -23 -6 -45 -7 -22 -9 -83 -7 -141 5
-119 21 -153 68 -153 39 0 56 30 41 72 -17 47 -14 181 5 227 18 46 32 51 127
44 92 -7 309 12 497 43 80 13 148 24 152 24 4 0 -1 -15 -12 -32 -48 -83 -63
-232 -32 -323 15 -44 21 -50 48 -53 47 -5 60 17 46 79 -27 116 -5 224 59 294
23 25 52 46 67 48 47 7 192 7 192 0z m1419 -229 c23 -26 41 -52 41 -57 0 -6 9
-20 20 -32 11 -12 29 -56 40 -100 38 -148 18 -342 -42 -410 -48 -55 -190 -146
-243 -156 -59 -11 -173 4 -223 30 -80 41 -188 177 -217 274 -18 61 -19 149 -1
197 17 48 85 139 138 184 77 66 160 100 263 107 191 12 178 15 224 -37z
m-1377 -520 c18 -9 64 -40 103 -69 112 -84 125 -89 227 -81 64 4 90 2 100 -7
51 -50 78 -60 362 -135 l59 -15 -6 -74 c-10 -126 -69 -199 -202 -248 -79 -29
-148 -69 -180 -104 -11 -13 -51 -73 -90 -134 -45 -72 -85 -123 -113 -144 -48
-36 -139 -68 -245 -84 -85 -13 -125 -29 -157 -64 -24 -25 -25 -33 -26 -143 -2
-137 -14 -190 -54 -236 -51 -58 -136 -88 -272 -97 -138 -8 -181 -25 -216 -85
-36 -62 -27 -134 31 -261 96 -208 128 -394 82 -473 -29 -48 -74 -71 -150 -78
-94 -7 -140 10 -289 108 -167 110 -203 124 -298 118 -92 -6 -139 -30 -207
-103 -84 -93 -106 -138 -106 -220 0 -58 7 -89 43 -184 63 -167 58 -240 -22
-279 -24 -12 -34 -12 -64 0 -39 14 -42 19 -111 168 -42 90 -86 132 -149 138
-68 6 -93 -10 -231 -142 -70 -67 -136 -122 -166 -136 -58 -28 -149 -37 -185
-18 -71 38 -92 146 -45 237 15 30 55 76 104 121 56 51 85 85 96 115 14 36 23
44 58 55 147 43 283 173 332 316 24 70 23 189 -3 246 -49 111 -191 147 -328
84 -27 -13 -78 -50 -113 -82 l-64 -59 7 75 c8 93 37 156 117 263 34 45 73 106
86 135 19 41 29 52 47 52 13 0 38 3 56 7 31 6 33 5 26 -18 -19 -69 -19 -77 7
-93 13 -9 31 -14 40 -10 21 8 47 76 47 123 0 37 2 39 47 56 64 23 130 66 173
111 19 20 69 62 111 95 96 73 141 125 185 215 49 98 62 182 40 256 -47 162
-194 209 -386 124 -12 -5 -18 7 -30 61 -18 88 -16 151 8 205 26 59 64 94 118
107 26 7 72 25 103 40 47 24 183 71 204 71 4 0 1 -12 -5 -27 -6 -16 -11 -64
-11 -108 0 -63 4 -89 21 -122 83 -160 346 -126 529 70 66 69 141 187 183 283
29 66 36 75 69 84 49 14 96 13 225 -5 105 -15 116 -15 216 4 118 23 212 21
262 -5z m1101 -344 l49 0 -7 -32 c-15 -72 -45 -119 -121 -190 -42 -40 -158
-153 -257 -251 -107 -106 -185 -176 -193 -173 -9 3 -11 0 -7 -11 5 -13 2 -15
-11 -10 -9 4 -15 3 -11 -2 7 -13 -345 -352 -358 -344 -6 3 -7 1 -4 -4 9 -15
-250 -266 -266 -257 -6 4 -9 3 -4 -1 10 -11 -33 -56 -46 -48 -6 3 -7 1 -4 -5
6 -9 -17 -31 -122 -117 -14 -11 -41 -34 -60 -51 -36 -31 -165 -126 -211 -155
l-25 -16 -38 80 c-52 108 -56 139 -25 170 24 24 41 27 270 40 14 1 24 5 22 8
-2 3 15 12 38 20 23 7 67 33 99 56 44 34 62 56 84 105 28 60 35 125 35 305 0
13 44 28 110 38 75 11 173 41 225 68 67 35 108 74 159 152 23 36 46 62 50 58
4 -4 4 0 1 8 -8 20 63 115 105 141 18 10 62 30 98 44 164 61 240 151 263 310
l12 76 51 -6 c28 -3 73 -6 99 -6z m-2349 -2064 c18 -7 52 -26 75 -41 l43 -27
-30 -21 c-16 -12 -76 -60 -132 -107 -115 -95 -211 -169 -222 -170 -12 0 -38
101 -38 144 1 49 20 86 79 155 61 72 150 98 225 67z m-688 -481 c12 -8 34 -40
49 -71 l28 -56 -29 -24 c-47 -39 -173 -121 -239 -155 -42 -23 -69 -30 -86 -26
-31 8 -98 68 -82 74 28 10 143 105 201 166 71 75 109 107 126 107 6 0 21 -7
32 -15z"/>
<path d="M4071 4085 c-18 -8 -38 -12 -44 -8 -5 3 -7 2 -4 -4 4 -6 -11 -24 -33
-42 -64 -51 -95 -114 -95 -191 0 -49 5 -73 22 -100 71 -115 102 -173 96 -182
-3 -6 -1 -8 4 -5 6 4 25 0 42 -9 41 -21 136 -21 185 0 21 9 43 13 49 9 5 -3 7
-1 4 4 -4 6 0 16 8 23 16 13 20 48 7 66 -15 22 -45 24 -78 5 -43 -26 -97 -36
-121 -23 -10 6 -41 46 -68 89 -61 98 -66 148 -21 207 43 57 81 76 153 76 80 0
103 -21 103 -91 0 -57 -36 -109 -76 -109 -22 0 -24 4 -24 45 0 32 -6 51 -20
65 -24 24 -29 24 -58 4 -21 -15 -23 -23 -21 -95 2 -43 5 -77 7 -74 2 2 20 -8
39 -21 109 -73 252 30 253 182 0 87 -36 154 -99 180 -43 18 -166 17 -210 -1z"/>
<path d="M2625 3581 c-119 -42 -187 -76 -274 -141 -203 -150 -315 -319 -328
-495 -14 -175 84 -315 240 -346 106 -22 302 35 443 126 32 22 96 75 140 120
67 66 89 96 127 175 77 158 96 295 58 405 -59 168 -207 225 -406 156z"/>
<path d="M3152 3458 c-17 -22 -24 -125 -12 -181 14 -67 55 -113 94 -103 35 9
43 42 17 77 -17 23 -21 43 -21 108 0 59 -4 84 -16 95 -19 19 -48 21 -62 4z"/>
<path d="M3412 3363 c-22 -9 -42 -59 -43 -113 -2 -53 8 -70 41 -70 31 0 42 19
53 90 10 67 9 73 -8 86 -20 15 -23 15 -43 7z"/>
<path d="M1259 3334 c-21 -25 -24 -117 -4 -137 37 -38 71 -11 80 64 5 45 3 60
-10 73 -21 20 -49 21 -66 0z"/>
<path d="M1623 3052 c-39 -25 -45 -156 -10 -223 27 -50 66 -71 91 -49 22 17
20 42 -5 85 -19 31 -21 45 -15 102 5 44 3 70 -5 79 -13 15 -37 18 -56 6z"/>
<path d="M3133 2989 c-10 -11 -35 -38 -55 -58 -39 -39 -47 -68 -26 -89 34 -34
109 13 143 89 l19 41 -23 19 c-29 24 -37 24 -58 -2z"/>
<path d="M1782 2818 c-17 -22 -24 -106 -12 -143 21 -64 106 -99 130 -55 12 22
5 60 -10 60 -24 0 -37 31 -33 74 4 29 1 51 -7 61 -15 18 -54 20 -68 3z"/>
<path d="M1734 2497 c-108 -36 -305 -172 -373 -256 -105 -134 -138 -308 -83
-434 23 -52 79 -102 129 -116 50 -14 142 -14 201 0 69 17 201 80 265 127 70
52 108 99 151 187 105 211 82 388 -60 471 -55 32 -164 42 -230 21z"/>
<path d="M2614 2255 c-37 -34 -58 -38 -134 -26 -87 14 -183 14 -198 -1 -34
-34 1 -78 60 -78 22 0 79 -5 127 -11 102 -14 153 -3 200 40 36 34 41 75 12 91
-28 15 -37 13 -67 -15z"/>
<path d="M1051 2074 c-39 -50 -36 -202 5 -218 51 -19 81 11 63 63 -8 21 -7 46
1 86 10 50 10 59 -6 76 -23 26 -39 24 -63 -7z"/>
<path d="M1697 1593 c-11 -11 -8 -58 5 -71 7 -7 39 -12 75 -12 76 0 102 -12
163 -75 57 -59 121 -100 195 -125 54 -18 60 -19 82 -4 16 10 23 23 21 37 -3
22 -15 30 -110 71 -36 15 -84 50 -128 91 -39 36 -86 73 -105 81 -35 14 -186
20 -198 7z"/>
<path d="M1162 1392 c-18 -12 -49 -108 -55 -174 -7 -71 13 -105 55 -95 28 7
38 30 38 90 0 21 9 63 20 94 14 40 17 61 9 74 -10 20 -44 25 -67 11z"/>
<path d="M694 933 c-59 -105 -75 -124 -118 -143 -48 -20 -57 -34 -45 -67 17
-47 124 -15 172 49 49 67 88 148 85 175 -2 23 -8 29 -35 31 -28 3 -34 -2 -59
-45z"/>
<path d="M2839 2043 c-13 -16 -12 -17 4 -4 16 13 21 21 13 21 -2 0 -10 -8 -17
-17z"/>
</g>
</svg>
