<?xml version="1.0" standalone="no"?>
<!DOCTYPE svg PUBLIC "-//W3C//DTD SVG 20010904//EN"
 "http://www.w3.org/TR/2001/REC-SVG-20010904/DTD/svg10.dtd">
<svg version="1.0" xmlns="http://www.w3.org/2000/svg"
 width="500.000000pt" height="500.000000pt" viewBox="0 0 500.000000 500.000000"
 preserveAspectRatio="xMidYMid meet">

<g transform="translate(0.000000,500.000000) scale(0.100000,-0.100000)"
fill="#000000" stroke="none">
<path d="M1918 3113 c-13 -16 -35 -44 -49 -63 -38 -57 -132 -173 -226 -281
-144 -166 -177 -206 -197 -242 -18 -35 -18 -35 5 -69 35 -49 109 -141 130
-159 32 -29 280 -333 289 -354 4 -11 24 -35 44 -54 30 -29 38 -32 51 -21 19
16 115 174 115 190 0 12 -166 220 -187 233 -7 4 -19 20 -27 35 -8 15 -40 56
-70 92 -31 36 -56 70 -56 75 0 10 120 170 158 210 49 53 182 223 182 233 0 13
-85 157 -108 185 -20 23 -24 22 -54 -10z"/>
<path d="M2975 3049 c-31 -50 -59 -97 -61 -104 -3 -6 37 -63 88 -124 51 -62
102 -124 113 -139 11 -15 48 -62 83 -105 l63 -78 -58 -72 c-32 -39 -67 -83
-78 -98 -11 -15 -60 -76 -109 -136 -49 -59 -93 -114 -99 -121 -7 -9 7 -40 48
-107 32 -53 61 -98 66 -101 14 -8 57 26 81 65 29 47 156 202 356 434 39 46 72
88 72 92 0 5 7 16 16 26 14 16 14 20 -8 51 -32 45 -138 176 -146 180 -7 3 -63
70 -215 254 -37 45 -67 86 -67 90 0 13 -67 84 -79 84 -5 0 -35 -41 -66 -91z"/>
<path d="M2651 3112 c-5 -10 -21 -61 -36 -113 -14 -51 -34 -121 -45 -154 -62
-201 -156 -514 -237 -790 -20 -66 -38 -135 -40 -152 l-5 -33 119 0 120 0 48
168 c26 92 65 221 86 286 22 66 43 144 48 175 6 31 28 117 51 191 23 74 52
173 66 220 14 47 34 114 45 149 10 35 19 65 19 67 0 2 -52 4 -115 4 -100 0
-116 -2 -124 -18z"/>
</g>
</svg>
